<svg xmlns="http://www.w3.org/2000/svg" version="1.1" xmlns:xlink="http://www.w3.org/1999/xlink" xmlns:svgjs="http://svgjs.dev/svgjs" width="1000" height="999" viewBox="0 0 1000 999"><g transform="matrix(1,0,0,1,-0.215743440233382,-0.21552769679306039)"><svg viewBox="0 0 343 343" data-background-color="#ffffff" preserveAspectRatio="xMidYMid meet" height="999" width="1000" xmlns="http://www.w3.org/2000/svg" xmlns:xlink="http://www.w3.org/1999/xlink"><defs></defs><g id="tight-bounds" transform="matrix(1,0,0,1,0.0740000000000407,0.07400000000001228)"><svg viewBox="0 0 342.85155851775386 342.85155851775386" height="342.85155851775386" width="342.85155851775386"><g><svg></svg></g><g><svg viewBox="0 0 342.85155851775386 342.85155851775386" height="342.85155851775386" width="342.85155851775386"><g><path d="M0 171.426c0-94.676 76.75-171.426 171.426-171.426 94.676 0 171.426 76.75 171.426 171.426 0 94.676-76.75 171.426-171.426 171.426-94.676 0-171.426-76.75-171.426-171.426zM171.426 337.459c91.697 0 166.033-74.335 166.033-166.033 0-91.697-74.335-166.033-166.033-166.033-91.697 0-166.033 74.335-166.033 166.033 0 91.697 74.335 166.033 166.033 166.033z" data-fill-palette-color="tertiary" fill="#c69645" stroke="transparent"></path><ellipse rx="164.56874808852186" ry="164.56874808852186" cx="171.42577925887693" cy="171.42577925887693" fill="#c69645" stroke="transparent" stroke-width="0" fill-opacity="1" data-fill-palette-color="tertiary"></ellipse></g><g transform="matrix(1,0,0,1,64.84655864529837,93.14516851498033)"><svg viewBox="0 0 213.1584412271571 156.5612214877932" height="156.5612214877932" width="213.1584412271571"><g><svg viewBox="0 0 213.1584412271571 156.5612214877932" height="156.5612214877932" width="213.1584412271571"><g><svg viewBox="0 0 213.1584412271571 156.5612214877932" height="156.5612214877932" width="213.1584412271571"><g transform="matrix(1,0,0,1,0,96.76111580415638)"><svg viewBox="0 0 213.1584412271571 59.800105683636836" height="59.800105683636836" width="213.1584412271571"><g><svg viewBox="0 0 213.1584412271571 59.800105683636836" height="59.800105683636836" width="213.1584412271571"><g><svg viewBox="0 0 213.1584412271571 59.800105683636836" height="59.800105683636836" width="213.1584412271571"><g transform="matrix(1,0,0,1,0,0)"><svg width="213.1584412271571" viewBox="5.760000228881836 -37.349998474121094 134.8800048828125 37.84000015258789" height="59.800105683636836" data-palette-color="#ffffff"><path d="M5.76 0L5.76-37.35 9.06-37.35 26.25-10.21 28.47-5.59 27.93-10.72 27.93-37.35 31.71-37.35 31.71 0 28.22 0 11.16-27.08 9.01-31.27 9.55-26.29 9.55 0 5.76 0ZM64.91-29.05L64.91-12.79Q64.91-4.74 65.38-0.2L65.38-0.2 61.74 0.1 61.15-3.34Q58.3-0.98 54.49 0.07L54.49 0.07Q52.98 0.49 50.89 0.49 48.8 0.49 47.15-0.01 45.51-0.51 44.53-1.61L44.53-1.61Q42.75-3.59 42.75-8.81L42.75-8.81 42.75-29.05 46.85-29.05 46.85-9.47Q46.85-5.96 47.53-4.94 48.22-3.93 49.16-3.58 50.1-3.22 51.39-3.22 52.68-3.22 53.89-3.43 55.1-3.64 56.32-4.03L56.32-4.03Q58.88-4.86 60.96-6.3L60.96-6.3 60.96-6.32Q60.86-8.18 60.86-13.55L60.86-13.55 60.86-29.05 64.91-29.05ZM89.16-4.57L90.55-1.39Q86.57 0.49 83.2 0.49L83.2 0.49Q77.09 0.49 76.26-4.74L76.26-4.74Q76.07-5.98 76.07-8.35L76.07-8.35 76.07-25.66 72.55-25.66 72.55-28.66 76.07-29.05 76.7-35.69 80.1-35.69 80.1-29.05 88.57-29.05 88.57-25.66 80.1-25.66 80.1-8.42Q80.1-5.42 80.54-4.59L80.54-4.59Q81.34-3.08 83.76-3.08 86.18-3.08 89.16-4.57L89.16-4.57ZM107.51-25.51L107.51-25.51Q104.39-25.51 101.14-22.39L101.14-22.39 101.14 0 97.09 0 97.09-29.05 100.65-29.05 101.04-25.2Q102.19-26.98 103.52-27.98 104.85-28.98 105.71-29.2L105.71-29.2Q106.93-29.54 108.02-29.54 109.12-29.54 110.78-29.1L110.78-29.1 110.42-25.22Q109.17-25.51 107.51-25.51ZM140.18-19.41L140.18-10.3Q140.18-5.44 140.64-0.2L140.64-0.2 137.03 0.1 136.42-3.3Q133.32-0.81 128.21 0.17L128.21 0.17Q126.55 0.49 125.26 0.49 123.96 0.49 122.98 0.37 121.99 0.24 121.07-0.11 120.16-0.46 119.37-1.1 118.59-1.73 118.01-2.78L118.01-2.78Q116.76-5 116.76-8.12 116.76-11.23 117.21-12.95 117.67-14.67 118.72-15.82L118.72-15.82Q120.79-18.09 125.7-18.09 130.61-18.09 136.17-16.24L136.17-16.24 136.17-19.41Q136.17-24.71 131.8-25.68L131.8-25.68Q130.39-26 128.55-26L128.55-26Q124.38-26 119.89-24.34L119.89-24.34 118.98-27.86Q120.23-28.69 125.33-29.35L125.33-29.35Q126.94-29.54 129.2-29.54 131.46-29.54 133.63-29 135.81-28.47 137.25-27.25L137.25-27.25Q140.18-24.83 140.18-19.41L140.18-19.41ZM136.07-13.18L136.07-13.18Q130.36-14.62 125.53-14.62L125.53-14.62Q122.55-14.62 121.57-12.92L121.57-12.92Q120.91-11.72 120.91-9.38 120.91-7.03 121.17-5.98 121.43-4.93 122.01-4.25L122.01-4.25Q123.16-2.95 125.8-2.95L125.8-2.95Q129.92-2.95 133.97-5.08L133.97-5.08Q135.22-5.71 136.22-6.49L136.22-6.49Q136.07-9.13 136.07-13.18Z" opacity="1" transform="matrix(1,0,0,1,0,0)" fill="#ffffff" class="undefined-text-0" data-fill-palette-color="quaternary" id="text-0"></path></svg></g></svg></g></svg></g></svg></g><g transform="matrix(1,0,0,1,63.82706902523984,0)"><svg viewBox="0 0 85.50430317667744 82.64374605478612" height="82.64374605478612" width="85.50430317667744"><g><svg xmlns="http://www.w3.org/2000/svg" viewBox="2.8720016479492188 3.9613187313079834 94.25499725341797 91.1016845703125" xml:space="preserve" x="0" y="0" height="82.64374605478612" width="85.50430317667744" class="icon-icon-0" data-fill-palette-color="quaternary" id="icon-0"><path d="M50 38.75c-23.458 0-47.128 6.938-47.128 22.438 0 7.231 5.155 12.598 13.034 16.268 1.88 4.843 4.707 8.634 8.509 11.437 7.376 5.437 17.187 6.17 25.81 6.17 8.623 0 18.432-0.733 25.809-6.17 3.871-2.854 6.728-6.734 8.607-11.704 7.565-3.661 12.486-8.939 12.486-16C97.128 45.688 73.458 38.75 50 38.75z m0.225 52.312c-12.376 0-23.16-1.784-28.852-11.466 8.294 2.729 18.479 4.03 28.627 4.03 10.38 0 20.797-1.361 29.191-4.219-5.663 9.851-16.509 11.655-28.966 11.655zM92.159 65.51a11.393 11.393 0 0 1-1.017 1.739c-1.185 1.682-2.864 3.19-4.934 4.53-1.422 0.921-3.032 1.76-4.793 2.519C73.174 77.849 61.59 79.627 50 79.627c-11.349 0-22.693-1.705-30.899-5.109v-0.001c-1.75-0.726-3.351-1.531-4.784-2.412-2.222-1.365-4.038-2.912-5.312-4.65-0.458-0.624-0.848-1.272-1.164-1.944s-0.558-1.368-0.721-2.089a10.02 10.02 0 0 1-0.248-2.232c0-0.384 0.021-0.763 0.062-1.135 0.581-5.209 5.16-9.242 11.931-12.1a46.914 46.914 0 0 1 3.031-1.152 59.44 59.44 0 0 1 3.885-1.171c0.364-0.097 0.726-0.196 1.096-0.288a74.755 74.755 0 0 1 3.564-0.792 86.318 86.318 0 0 1 2.549-0.459c0.264-0.044 0.533-0.082 0.799-0.124 0.604-0.094 1.21-0.186 1.824-0.269 0.313-0.043 0.63-0.082 0.946-0.122a96.81 96.81 0 0 1 2.718-0.305c0.622-0.061 1.248-0.116 1.876-0.166 0.283-0.022 0.566-0.047 0.85-0.067 0.763-0.055 1.53-0.101 2.299-0.14 0.148-0.007 0.294-0.018 0.442-0.025 0.96-0.045 1.923-0.078 2.888-0.098h0.003c0.91-0.019 1.821-0.024 2.731-0.021 0.603 0.002 1.204 0.016 1.806 0.027 0.523 0.01 1.047 0.016 1.568 0.034 0.953 0.032 1.904 0.074 2.852 0.13 0.493 0.029 0.981 0.071 1.473 0.106 0.562 0.041 1.126 0.08 1.686 0.129 0.499 0.044 0.993 0.098 1.489 0.149 0.546 0.057 1.091 0.114 1.632 0.179a102.258 102.258 0 0 1 4.441 0.642 81.74 81.74 0 0 1 1.674 0.304c0.416 0.079 0.832 0.157 1.241 0.241 0.609 0.126 1.206 0.263 1.8 0.401 0.339 0.079 0.684 0.152 1.017 0.235 0.866 0.214 1.714 0.442 2.543 0.683 0.05 0.015 0.104 0.027 0.153 0.042 3.007 0.884 5.756 1.941 8.13 3.179l0.027 0.013c0.046 0.024 0.088 0.05 0.134 0.074 0.718 0.38 1.397 0.778 2.044 1.19 0.712 0.455 1.375 0.931 1.992 1.425 0.478 0.384 0.938 0.775 1.354 1.183 0.367 0.358 0.7 0.729 1.017 1.106a11.936 11.936 0 0 1 1.891 3.057c0.187 0.445 0.344 0.9 0.465 1.367 0.119 0.459 0.218 0.924 0.271 1.401 0.041 0.372 0.062 0.751 0.062 1.135a10.065 10.065 0 0 1-0.969 4.322z" fill="#ffffff" data-fill-palette-color="quaternary"></path><path d="M73.675 47.931c-6.301-1.7-14.708-2.636-23.674-2.636s-17.374 0.937-23.674 2.636c-7.682 2.073-12.053 5.252-13.033 9.469l-0.021 0.117c-0.035 0.16-0.058 0.324-0.083 0.487-0.034 0.249-0.062 0.496-0.079 0.737l-0.003 0.064c-0.009 0.16-0.026 0.317-0.026 0.48 0 0.037 0.005 0.073 0.006 0.11 0.037 2.918 1.509 5.403 4.391 7.437 2.161 1.526 5.109 2.801 8.849 3.81 6.301 1.7 14.708 2.637 23.674 2.637s17.373-0.937 23.674-2.637c4.032-1.088 7.141-2.484 9.337-4.172 2.591-1.991 3.908-4.39 3.908-7.185-0.001-5.162-4.457-8.982-13.246-11.354zM30.57 59.637a2 2 0 1 1 3.999-0.001 2 2 0 0 1-3.999 0.001z m8.229 3.856a2 2 0 1 1 3.999-0.001 2 2 0 0 1-3.999 0.001z m5.208-5.859a2 2 0 1 1 3.999-0.001 2 2 0 0 1-3.999 0.001z m7.302 5.858a2 2 0 1 1 3.999-0.001 2 2 0 0 1-3.999 0.001z m5.101-5.51a2 2 0 1 1 3.999-0.001 2 2 0 0 1-3.999 0.001z m8.476 3.206a2 2 0 1 1 3.999-0.001 2 2 0 0 1-3.999 0.001z m17.135 0.654c0-13.047-64.04-13.047-64.04 0-0.553-0.754-0.864-1.565-0.89-2.435-0.001-0.04-0.009-0.079-0.009-0.12 0-0.263 0.035-0.519 0.084-0.771v-0.001C18.389 52.369 34.19 49.294 50 49.294c16.459 0 32.919 3.331 32.919 9.992 0.001 0.916-0.319 1.767-0.898 2.556zM55.125 33.156a2 2 0 0 0 1.975-2.322c-1.229-7.538-0.197-9.35 0.894-11.267 1.651-2.902 2.716-5.597 1.363-13.888a2 2 0 1 0-3.947 0.644c1.229 7.538 0.198 9.349-0.893 11.267-1.651 2.902-2.716 5.597-1.364 13.889a2 2 0 0 0 1.972 1.677zM46.029 37.651a2 2 0 0 0 1.976-2.322c-1.229-7.538-0.198-9.349 0.894-11.267 1.651-2.902 2.716-5.597 1.364-13.888a2 2 0 0 0-3.948 0.644c1.229 7.538 0.199 9.349-0.892 11.267-1.652 2.902-2.716 5.597-1.365 13.888a1.999 1.999 0 0 0 1.971 1.678z" fill="#ffffff" data-fill-palette-color="quaternary"></path></svg></g></svg></g><g></g></svg></g></svg></g></svg></g></svg></g></svg><rect width="342.85155851775386" height="342.85155851775386" fill="none" stroke="none" visibility="hidden"></rect></g></svg></g></svg>